<?xml version="1.0" encoding="UTF-8"?>
<svg width="16" height="16" viewBox="0 0 16 16" fill="none" xmlns="http://www.w3.org/2000/svg">
    <path d="M8 1.33334L2 4.66668V11.3333L8 14.6667L14 11.3333V4.66668L8 1.33334Z" fill="#4285F4"/>
    <path d="M8 5.33334L5 7.00001V10.3333L8 12L11 10.3333V7.00001L8 5.33334Z" fill="white"/>
    <path d="M8 1.33334V5.33334L11 7.00001L14 4.66668L8 1.33334Z" fill="#1967D2"/>
    <path d="M8 1.33334L2 4.66668L5 7.00001L8 5.33334V1.33334Z" fill="#4285F4"/>
    <path d="M5 7.00001L2 4.66668V11.3333L5 10.3333V7.00001Z" fill="#34A853"/>
    <path d="M11 7.00001V10.3333L14 11.3333V4.66668L11 7.00001Z" fill="#FBBC04"/>
    <path d="M8 12L5 10.3333L2 11.3333L8 14.6667V12Z" fill="#EA4335"/>
    <path d="M14 11.3333L11 10.3333L8 12V14.6667L14 11.3333Z" fill="#EA4335"/>
</svg> 