<?xml version="1.0" encoding="UTF-8"?>
<svg width="48" height="48" viewBox="0 0 48 48" fill="none" xmlns="http://www.w3.org/2000/svg">
    <path d="M24 4L6 14V34L24 44L42 34V14L24 4Z" fill="#4285F4"/>
    <path d="M24 16L15 21V31L24 36L33 31V21L24 16Z" fill="white"/>
    <path d="M24 4V16L33 21L42 14L24 4Z" fill="#1967D2"/>
    <path d="M24 4L6 14L15 21L24 16V4Z" fill="#4285F4"/>
    <path d="M15 21L6 14V34L15 31V21Z" fill="#34A853"/>
    <path d="M33 21V31L42 34V14L33 21Z" fill="#FBBC04"/>
    <path d="M24 36L15 31L6 34L24 44V36Z" fill="#EA4335"/>
    <path d="M42 34L33 31L24 36V44L42 34Z" fill="#EA4335"/>
</svg> 