<?xml version="1.0" encoding="UTF-8"?>
<svg width="128" height="128" viewBox="0 0 128 128" fill="none" xmlns="http://www.w3.org/2000/svg">
    <path d="M64 10.6667L16 37.3334V90.6667L64 117.333L112 90.6667V37.3334L64 10.6667Z" fill="#4285F4"/>
    <path d="M64 42.6667L40 56V82.6667L64 96L88 82.6667V56L64 42.6667Z" fill="white"/>
    <path d="M64 10.6667V42.6667L88 56L112 37.3334L64 10.6667Z" fill="#1967D2"/>
    <path d="M64 10.6667L16 37.3334L40 56L64 42.6667V10.6667Z" fill="#4285F4"/>
    <path d="M40 56L16 37.3334V90.6667L40 82.6667V56Z" fill="#34A853"/>
    <path d="M88 56V82.6667L112 90.6667V37.3334L88 56Z" fill="#FBBC04"/>
    <path d="M64 96L40 82.6667L16 90.6667L64 117.333V96Z" fill="#EA4335"/>
    <path d="M112 90.6667L88 82.6667L64 96V117.333L112 90.6667Z" fill="#EA4335"/>
</svg> 